<svg id="visual" viewBox="0 0 900 600" width="900" height="600" xmlns="http://www.w3.org/2000/svg" xmlns:xlink="http://www.w3.org/1999/xlink" version="1.1"><path d="M0 425L16.7 424.2C33.3 423.3 66.7 421.7 100 420.2C133.3 418.7 166.7 417.3 200 416.7C233.3 416 266.7 416 300 422.2C333.3 428.3 366.7 440.7 400 443.8C433.3 447 466.7 441 500 435.7C533.3 430.3 566.7 425.7 600 425.7C633.3 425.7 666.7 430.3 700 434.3C733.3 438.3 766.7 441.7 800 438.7C833.3 435.7 866.7 426.3 883.3 421.7L900 417L900 601L883.3 601C866.7 601 833.3 601 800 601C766.7 601 733.3 601 700 601C666.7 601 633.3 601 600 601C566.7 601 533.3 601 500 601C466.7 601 433.3 601 400 601C366.7 601 333.3 601 300 601C266.7 601 233.3 601 200 601C166.7 601 133.3 601 100 601C66.7 601 33.3 601 16.7 601L0 601Z" fill="#ffc200"></path><path d="M0 455L16.7 455.3C33.3 455.7 66.7 456.3 100 459.7C133.3 463 166.7 469 200 473C233.3 477 266.7 479 300 475.7C333.3 472.3 366.7 463.7 400 464.3C433.3 465 466.7 475 500 479.2C533.3 483.3 566.7 481.7 600 481.7C633.3 481.7 666.7 483.3 700 480.8C733.3 478.3 766.7 471.7 800 472.2C833.3 472.7 866.7 480.3 883.3 484.2L900 488L900 601L883.3 601C866.7 601 833.3 601 800 601C766.7 601 733.3 601 700 601C666.7 601 633.3 601 600 601C566.7 601 533.3 601 500 601C466.7 601 433.3 601 400 601C366.7 601 333.3 601 300 601C266.7 601 233.3 601 200 601C166.7 601 133.3 601 100 601C66.7 601 33.3 601 16.7 601L0 601Z" fill="#ffa600"></path><path d="M0 504L16.7 501.2C33.3 498.3 66.7 492.7 100 489.8C133.3 487 166.7 487 200 491.2C233.3 495.3 266.7 503.7 300 508C333.3 512.3 366.7 512.7 400 511.8C433.3 511 466.7 509 500 507.7C533.3 506.3 566.7 505.7 600 504.7C633.3 503.7 666.7 502.3 700 501C733.3 499.7 766.7 498.3 800 495.3C833.3 492.3 866.7 487.7 883.3 485.3L900 483L900 601L883.3 601C866.7 601 833.3 601 800 601C766.7 601 733.3 601 700 601C666.7 601 633.3 601 600 601C566.7 601 533.3 601 500 601C466.7 601 433.3 601 400 601C366.7 601 333.3 601 300 601C266.7 601 233.3 601 200 601C166.7 601 133.3 601 100 601C66.7 601 33.3 601 16.7 601L0 601Z" fill="#ff8a00"></path><path d="M0 516L16.7 516C33.3 516 66.7 516 100 518.8C133.3 521.7 166.7 527.3 200 527.7C233.3 528 266.7 523 300 521.8C333.3 520.7 366.7 523.3 400 522.8C433.3 522.3 466.7 518.7 500 517.2C533.3 515.7 566.7 516.3 600 516.8C633.3 517.3 666.7 517.7 700 517.7C733.3 517.7 766.7 517.3 800 519.8C833.3 522.3 866.7 527.7 883.3 530.3L900 533L900 601L883.3 601C866.7 601 833.3 601 800 601C766.7 601 733.3 601 700 601C666.7 601 633.3 601 600 601C566.7 601 533.3 601 500 601C466.7 601 433.3 601 400 601C366.7 601 333.3 601 300 601C266.7 601 233.3 601 200 601C166.7 601 133.3 601 100 601C66.7 601 33.3 601 16.7 601L0 601Z" fill="#ff6b00"></path><path d="M0 566L16.7 566.7C33.3 567.3 66.7 568.7 100 566.7C133.3 564.7 166.7 559.3 200 558C233.3 556.7 266.7 559.3 300 558.2C333.3 557 366.7 552 400 551.2C433.3 550.3 466.7 553.7 500 556.7C533.3 559.7 566.7 562.3 600 562.7C633.3 563 666.7 561 700 560.3C733.3 559.7 766.7 560.3 800 560C833.3 559.7 866.7 558.3 883.3 557.7L900 557L900 601L883.3 601C866.7 601 833.3 601 800 601C766.7 601 733.3 601 700 601C666.7 601 633.3 601 600 601C566.7 601 533.3 601 500 601C466.7 601 433.3 601 400 601C366.7 601 333.3 601 300 601C266.7 601 233.3 601 200 601C166.7 601 133.3 601 100 601C66.7 601 33.3 601 16.7 601L0 601Z" fill="#ff4200"></path></svg>